<?xml version="1.0" encoding="UTF-8"?>
<svg width="1600px" height="1200px" viewBox="0 0 1600 1200" version="1.1" xmlns="http://www.w3.org/2000/svg" xmlns:xlink="http://www.w3.org/1999/xlink">
    <!-- Generator: Sketch 55.2 (78181) - https://sketchapp.com -->
    <title>Clarence</title>
    <desc>Created with Sketch.</desc>
    <g id="Patterns" stroke="none" stroke-width="1" fill="none" fill-rule="evenodd">
        <g id="Clarence" fill-rule="nonzero">
            <g transform="translate(-310.000000, -500.000000)" id="Shape">
                <path d="M1429.441,60.3618885 C1488.10716,99.9003527 1505.38904,155.846936 1516.60608,222.392065 C1530.34522,303.677024 1550.78711,383.332947 1586.64628,457.149856 C1610.1991,505.716712 1641.35753,566.609283 1687.50143,598.463801 C1740.81913,635.264308 1819.92718,617.168272 1876.21842,600.956422 C1959.93889,576.844731 2046.76049,538.876421 2122.27672,492.919949 C2151.92384,474.882794 2168.74448,465.187087 2197.73408,486.24679 C2201.84601,489.190831 2207.06689,493.400809 2212.71956,490.446955 C2217.06702,488.180044 2220.5705,482.174201 2223.97585,476.560897 C2231.38332,464.15012 2239.75047,452.337914 2249.00072,441.232411 C2257.41104,431.2423 2268,418.612366 2268,404.696868 C2268,395.560529 2263.53478,389.132707 2259.75651,384.333921 C2253.18135,375.963032 2238.74543,351.05645 2224.97684,356.679567 C2213.33782,361.439099 2202.64092,371.507718 2191.61035,378.808938 C2162.62075,398.05315 2131.64878,414.902875 2100.89272,430.359088 C1997.56453,482.301776 1848.19056,544.941145 1743.58659,461.438342 C1670.36675,402.969697 1621.61241,325.708261 1604.47773,234.747222 C1593.00554,173.815397 1585.76305,113.060214 1553.29941,59.0861376 C1541.14027,38.8802062 1524.83975,22.4328331 1504.76097,11.2552926 C1484.27001,-0.128330744 1453.56302,-4.9565572 1431.57057,6.75091061 C1412.46335,16.9569177 1412.56148,47.7908355 1429.441,60.3618885 Z" fill="#67b246" transform="translate(1842.500000, 310.000000) rotate(-360.000000) translate(-1842.500000, -310.000000) "></path>
                <path d="M1317.74422,80.0164729 C1303.03462,80.290881 1293.32629,95.3441231 1298.32755,108.280503 C1299.3013,110.638386 1300.76925,112.760405 1302.63256,114.503686 C1335.10154,143.982952 1362.06913,181.831663 1376.08247,223.120276 C1382.25069,241.31941 1387.23234,260.126163 1391.90018,278.893714 C1400.72594,314.341355 1409.83608,349.994802 1418.03423,385.579647 C1427.14437,425.104208 1435.68574,465.118784 1445.49214,504.437538 C1449.80695,521.656644 1454.40615,539.012954 1459.2211,556.075255 C1474.29353,608.996809 1492.82762,661.536152 1517.76528,710.282784 C1536.15227,746.24004 1558.03034,777.238351 1600.44301,785.745 C1643.23812,794.320252 1690.44611,784.38276 1731.40743,774.082658 C1844.76937,745.55402 1955.77778,692.906874 2064.37381,646.914123 C2083.6826,638.740683 2105.99215,626.833333 2125.96778,628.803191 C2142.63866,630.449639 2158.32889,639.044492 2174.2937,647.061127 C2177.64749,648.736976 2181.3347,650.461827 2184.90422,650.853839 C2187.51175,651.251645 2190.15773,650.431613 2192.08251,648.629173 C2195.41668,645.483281 2197.14261,638.740683 2198.49589,632.047086 C2200.68272,621.26677 2202.75186,610.39825 2204.77198,599.568932 C2205.48785,595.776221 2206.1841,592.032511 2206.91958,588.367203 C2209.68499,574.529197 2211.88162,559.064343 2207.56681,545.245937 C2204.95148,537.138666 2200.47494,529.755122 2194.49488,523.685304 C2182.66837,511.023332 2164.90898,489.119688 2144.48226,493.461216 C2129.13525,496.724712 2114.52372,505.054956 2100.28483,511.856356 C2068.28656,527.125205 2035.77836,541.580629 2003.58396,556.271261 C1965.24095,573.774575 1926.24091,590.797675 1886.88784,605.184497 C1826.8727,627.097941 1754.39362,652.010273 1689.11244,640.465534 C1632.03922,630.322236 1594.79452,579.04713 1566.16965,533.907004 C1528.42483,474.389856 1506.47812,406.973676 1491.01343,337.744442 C1483.84496,305.687701 1478.66718,272.690132 1471.33199,240.897998 C1464.96764,213.300388 1456.50472,185.830181 1443.67796,161.133455 C1433.85996,142.086545 1420.21215,125.270951 1403.58941,111.740005 C1380.8778,93.1684592 1347.40857,79.4578565 1317.74422,80.0164729 Z" fill="#577547" transform="translate(1753.500000, 434.500000) rotate(-360.000000) translate(-1753.500000, -434.500000) "></path>
                <path d="M1196.10352,127.277529 C1186.0127,126.297566 1167.90224,127.189333 1168,142.163174 C1168.09666,143.95155 1168.6879,145.678223 1169.70838,147.151188 C1192.93296,185.94794 1225.07045,218.139738 1243.24963,259.846982 C1251.62265,279.064064 1258.95518,299.045519 1265.75765,318.919177 C1278.51841,356.520374 1290.70003,395.170131 1301.52704,433.114315 C1313.65958,475.625128 1322.32708,519.988073 1331.4363,563.694441 C1335.59828,583.617098 1339.74061,603.588752 1344.04001,623.47221 C1357.18359,684.141746 1371.96645,744.987675 1392.82538,803.128905 C1407.32357,843.542597 1422.52851,893.177744 1459.36785,919.675955 C1497.48326,947.114931 1548.80115,941.019559 1591.88345,934.267611 C1738.8776,911.189472 1876.44843,841.935457 2021.75424,807.695535 C2050.56411,800.914188 2083.15313,791.124353 2111.91392,798.385882 C2135.55078,804.363659 2158.1177,817.759759 2180.81222,827.255605 C2185.17051,829.078337 2189.93126,830.656078 2194.319,830.891269 C2197.41103,831.057863 2200.26747,830.313091 2202.32883,827.784785 C2205.13619,824.354913 2205.98037,817.436371 2206,810.341436 C2206,798.513277 2205.34233,786.596922 2204.23313,774.758964 C2203.8503,770.623518 2203.34969,766.507672 2202.88834,762.519221 C2201.17054,747.52578 2198.38281,731.669972 2191.58034,718.195475 C2187.17662,709.833445 2181.36226,702.291674 2174.39258,695.901307 C2155.25143,678.457958 2134.52992,659.289874 2106.66238,660.622624 C2087.03044,661.602587 2067.98746,668.668124 2049.49417,674.587103 C2013.00821,686.258467 1977.09157,698.909795 1941.51849,712.991869 C1899.37853,729.651247 1857.10115,747.212192 1814.63726,762.764212 C1747.22118,787.439691 1670.3425,815.339249 1597.04665,812.673749 C1523.16184,809.988649 1493.23294,749.95609 1465.18872,691.207282 C1426.51379,610.164307 1403.71129,522.085194 1384.18733,433.917885 C1375.98118,396.875267 1367.2057,359.803251 1357.81182,323.182018 C1350.37131,294.165301 1342.03755,264.893793 1329.86575,238.140792 C1320.95406,218.504783 1308.88831,200.454492 1294.14543,184.703386 C1269.16379,157.999383 1231.39193,130.580006 1196.10352,127.277529 Z" fill="#40493B" transform="translate(1687.000000, 533.500000) rotate(-360.000000) translate(-1687.000000, -533.500000) "></path>
                <path d="M1067.67551,152.948473 C1054.79581,147.708359 1036.71715,140.685626 1023.1508,145.749437 C1022.13004,146.066086 1021.356,146.902431 1021.12026,147.943429 C1019.15839,163.516853 1041.71993,183.252984 1050.84264,194.281711 C1068.23464,215.232373 1086.28387,236.104679 1100.87039,258.926112 C1113.62257,278.858135 1125.66847,299.671673 1136.56667,320.63213 C1157.63693,361.3998 1175.50763,403.738339 1190.0179,447.266594 C1204.83985,491.596981 1216.14023,534.438589 1221.50596,581.080503 C1223.8602,601.570819 1225.58665,622.413741 1227.14634,643.08036 C1231.84503,705.148779 1234.72898,768.284811 1246.47079,828.942807 C1255.29922,874.49752 1267.8552,924.861385 1292.91813,965.087833 C1319.57998,1007.89026 1363.54555,1030.41786 1410.97383,1035.609 C1582.88294,1054.51259 1758.03895,954.010133 1930.17367,936.16436 C1987.88217,930.179856 2044.32525,943.667029 2097.05058,966.586407 C2148.31432,988.859342 2197.31209,1022.82704 2250.20419,1042.06364 C2256.41351,1044.3164 2261.82828,1045.57991 2265.44794,1044.73757 C2267.97875,1044.1401 2269.42073,1042.18118 2268.89103,1037.5973 C2268.27304,1032.22006 2264.79071,1023.28738 2260.71002,1013.97271 C2254.06908,998.810662 2246.97691,983.6682 2239.76702,968.780399 C2237.29506,963.696998 2234.86234,958.799695 2232.48847,954.08849 C2224.38594,937.80006 2216.18531,920.688883 2205.35577,906.516088 C2198.63751,897.534092 2191.00421,889.272201 2182.57843,881.863064 C2155.75963,858.777177 2126.66505,835.926361 2090.08593,832.498249 C2028.75779,826.748815 1957.3358,847.483996 1899.90198,864.036881 C1854.61214,877.093091 1809.3125,892.323703 1764.08152,906.153687 C1688.8535,929.08286 1609.09356,953.020878 1529.57885,954.206025 C1493.4902,954.744728 1459.02991,946.811097 1432.80947,920.649704 C1407.56017,895.457977 1394.0821,859.57054 1380.66289,827.522589 C1340.57202,731.780314 1315.53852,630.229837 1290.15189,529.325804 C1279.36159,486.307894 1265.83447,443.956017 1253.27849,401.398453 C1243.82226,369.281939 1234.0129,336.842204 1220.96644,306.478925 C1211.84927,285.104337 1200.16224,264.916338 1186.16282,246.359632 C1155.74398,206.182157 1113.84818,171.734528 1067.67551,152.948473 Z" fill="#E1F7D4" transform="translate(1645.000000, 594.500000) rotate(-360.000000) translate(-1645.000000, -594.500000) "></path>
                <!-- <path d="M913.663303,138.487064 C896.186996,129.236032 876.288327,119.642006 856.00718,117.24105 C854.115255,117 852.202721,116.935403 850.299429,117.074453 C831.185331,117.858439 869.658706,152.353812 873.150045,155.626953 C895.21609,176.422175 918.66494,196.080619 939.338373,218.061619 C957.452144,237.32807 975.10498,257.574502 991.384817,278.330525 C1022.35574,317.843408 1049.70783,360.903826 1070.82258,406.375001 C1091.93733,451.846175 1098.96905,495.033991 1095.99748,544.846487 C1094.72256,566.308097 1091.92753,588.249899 1088.65194,609.67231 C1078.62906,675.027323 1062.4669,740.784129 1055.00368,806.29594 C1049.60975,853.531082 1049.58033,901.138618 1058.48521,948.452159 C1068.44925,1001.4594 1094.26162,1042.53045 1139.81575,1067.88259 C1229.57061,1117.74409 1346.47161,1094.6753 1445.6119,1072.57671 C1536.81822,1052.26167 1635.87024,1014.53236 1730.38157,1021.12764 C1845.66439,1029.17329 1961.76121,1085.97306 2063.46116,1135.92276 C2123.54945,1165.43002 2182.86298,1197.33824 2242.17651,1228.78587 C2288.83884,1253.54022 2336.03075,1281.24432 2384.80162,1299.60918 C2393.45151,1302.87252 2403.17037,1306.85125 2412.60483,1307 C2417.01804,1307.06685 2419.8425,1305.12648 2418.77352,1299.87378 C2417.00823,1291.20094 2411.43778,1282.63589 2407.00496,1274.96263 C2396.73689,1257.26415 2384.61528,1240.09486 2372.17003,1223.62136 C2367.71759,1217.74147 2363.30438,1212.08697 2358.9304,1206.65787 C2343.89607,1187.96961 2327.95948,1169.58514 2310.33607,1153.54284 C2296.84288,1141.31098 2282.66156,1129.85921 2267.86139,1119.24346 C2199.14282,1069.81316 2124.67727,1027.18393 2045.98485,997.657066 C2003.29441,981.624557 1958.09334,968.463396 1911.9606,964.93546 C1870.49605,961.770117 1827.92329,968.620193 1787.76309,976.901043 C1742.35607,986.269673 1696.96867,999.019241 1651.82645,1010.73003 C1575.92906,1030.43747 1497.96237,1049.76272 1418.89728,1049.31193 C1381.28693,1049.09633 1343.06854,1041.71707 1311.76418,1019.91246 C1278.06687,996.392889 1259.51178,962.818698 1245.83083,926.049766 C1206.8671,821.250468 1199.01159,708.209521 1188.03741,595.854561 C1182.71214,541.396949 1173.10115,490.575072 1154.95796,439.126006 C1142.20869,403.052861 1127.58625,366.999315 1109.78631,333.425125 C1097.4178,310.225586 1083.13144,288.09905 1067.07625,267.276326 C1026.05303,213.945694 972.319754,169.523101 913.663303,138.487064 Z" fill="#1DAACC" transform="translate(1632.000000, 712.000000) rotate(-360.000000) translate(-1632.000000, -712.000000) "></path> -->
                <!-- <path d="M984.232997,536.790632 C976.620143,627.932834 936.88811,717.859806 907.58451,805.483722 C878.859722,891.382797 843.120513,1004.07572 893.369272,1082.50701 C936.603609,1149.98164 1035.74729,1167.02425 1114.64236,1162.00653 C1195.9802,1156.82221 1275.14996,1134.37967 1354.61402,1117.81727 C1391.61877,1110.10448 1428.9865,1103.23451 1466.75646,1100.74525 C1509.49047,1097.94239 1548.5652,1104.66535 1589.57259,1116.60204 C1740.83881,1160.7031 1885.84602,1231.40201 2025.98727,1301.69911 C2133.97011,1355.88462 2240.62854,1413.51981 2347.76768,1469.85157 C2388.74563,1491.41209 2429.76283,1512.97261 2471.58447,1532.89649 C2496.62055,1544.80378 2523.27535,1558.73972 2550.74441,1563.48303 C2557.69997,1564.68846 2563.34094,1563.94364 2563.84127,1559.56294 C2566.3331,1537.74761 2538.87385,1508.06269 2524.52127,1491.48069 C2500.28964,1463.48142 2470.17177,1440.08825 2439.93619,1418.38073 C2257.13941,1287.11636 2047.17769,1180.97979 1835.12636,1102.5779 C1768.61199,1077.9891 1693.54298,1048.15718 1621.39745,1049.40181 C1561.28927,1050.44064 1501.85799,1064.86659 1443.56472,1078.26351 C1317.01084,1107.35061 1090.01831,1160.92851 1038.17046,1001.62566 C1010.58367,916.853612 1023.21944,818.684641 1036.5125,728.199055 C1049.00111,643.084 1074.21379,548.668519 1057.65387,463.935673 C1044.46872,396.461043 999.645101,330.005638 955.233518,278.074183 C903.846756,218.008533 837.33239,170.369582 765.77549,136.891973 C745.781939,127.542547 722.894326,117.771711 700.399128,117.036694 C662.138652,115.782263 693.384707,147.035218 706.285355,158.031084 C731.527459,179.532803 760.242436,196.928223 785.74942,217.812528 C848.830154,269.440175 907.309819,328.143593 948.111183,398.381889 C974.108686,443.168971 988.569184,484.868978 984.232997,536.790632 Z" fill="#EAE9F9" transform="translate(1623.000000, 840.500000) rotate(-360.000000) translate(-1623.000000, -840.500000) "></path> -->
            </g>
        </g>
    </g>
</svg>